<mxfile host="app.diagrams.net" modified="2021-03-30T02:11:49.778Z" agent="5.0 (Macintosh)" etag="lbB8C1hvNw2pnzDiASnQ" version="14.5.3" type="github">
  <diagram id="VTttFA145b3VyFMV-93R" name="Page-1">
    <mxGraphModel dx="1266" dy="675" grid="1" gridSize="10" guides="1" tooltips="1" connect="1" arrows="1" fold="1" page="1" pageScale="1" pageWidth="850" pageHeight="1100" math="0" shadow="0">
      <root>
        <mxCell id="0" />
        <mxCell id="1" parent="0" />
        <mxCell id="zv7DM0A8hmBbavPNrGPF-1" value="&lt;div&gt;FBA-FEES&lt;/div&gt;&lt;div&gt;Input Data&lt;br&gt;&lt;/div&gt;" style="points=[[0,0,0],[0.25,0,0],[0.5,0,0],[0.75,0,0],[1,0,0],[0,1,0],[0.25,1,0],[0.5,1,0],[0.75,1,0],[1,1,0],[0,0.25,0],[0,0.5,0],[0,0.75,0],[1,0.25,0],[1,0.5,0],[1,0.75,0]];outlineConnect=0;fontColor=#232F3E;gradientColor=#60A337;gradientDirection=north;fillColor=#277116;strokeColor=#ffffff;dashed=0;verticalLabelPosition=middle;verticalAlign=middle;align=right;html=1;fontSize=12;fontStyle=0;aspect=fixed;shape=mxgraph.aws4.resourceIcon;resIcon=mxgraph.aws4.s3;labelPosition=left;" vertex="1" parent="1">
          <mxGeometry x="90" y="290" width="78" height="78" as="geometry" />
        </mxCell>
        <mxCell id="zv7DM0A8hmBbavPNrGPF-2" value="&lt;div&gt;FBA-FEES&lt;/div&gt;&lt;div&gt;User Script&lt;br&gt;&lt;/div&gt;" style="points=[[0,0,0],[0.25,0,0],[0.5,0,0],[0.75,0,0],[1,0,0],[0,1,0],[0.25,1,0],[0.5,1,0],[0.75,1,0],[1,1,0],[0,0.25,0],[0,0.5,0],[0,0.75,0],[1,0.25,0],[1,0.5,0],[1,0.75,0]];outlineConnect=0;fontColor=#232F3E;gradientColor=#60A337;gradientDirection=north;fillColor=#277116;strokeColor=#ffffff;dashed=0;verticalLabelPosition=top;verticalAlign=bottom;align=center;html=1;fontSize=12;fontStyle=0;aspect=fixed;shape=mxgraph.aws4.resourceIcon;resIcon=mxgraph.aws4.s3;labelPosition=center;" vertex="1" parent="1">
          <mxGeometry x="281" y="150" width="78" height="78" as="geometry" />
        </mxCell>
        <mxCell id="zv7DM0A8hmBbavPNrGPF-4" value="&lt;div&gt;MLPigeon-Prod&lt;/div&gt;&lt;div&gt;&lt;br&gt;&lt;/div&gt;" style="outlineConnect=0;dashed=0;verticalLabelPosition=bottom;verticalAlign=top;align=center;html=1;shape=mxgraph.aws3.lambda_function;fillColor=#F58534;gradientColor=none;" vertex="1" parent="1">
          <mxGeometry x="285.5" y="293" width="69" height="72" as="geometry" />
        </mxCell>
        <mxCell id="zv7DM0A8hmBbavPNrGPF-11" value="5" style="edgeStyle=orthogonalEdgeStyle;rounded=0;orthogonalLoop=1;jettySize=auto;html=1;entryX=0.5;entryY=1;entryDx=0;entryDy=0;entryPerimeter=0;" edge="1" parent="1" source="zv7DM0A8hmBbavPNrGPF-5" target="zv7DM0A8hmBbavPNrGPF-6">
          <mxGeometry relative="1" as="geometry">
            <mxPoint x="559" y="210" as="targetPoint" />
          </mxGeometry>
        </mxCell>
        <mxCell id="zv7DM0A8hmBbavPNrGPF-5" value="&lt;div&gt;FBA-FEES&lt;/div&gt;&lt;div&gt;Training job&lt;br&gt;&lt;/div&gt;" style="points=[[0,0,0],[0.25,0,0],[0.5,0,0],[0.75,0,0],[1,0,0],[0,1,0],[0.25,1,0],[0.5,1,0],[0.75,1,0],[1,1,0],[0,0.25,0],[0,0.5,0],[0,0.75,0],[1,0.25,0],[1,0.5,0],[1,0.75,0]];outlineConnect=0;fontColor=#232F3E;gradientColor=#4AB29A;gradientDirection=north;fillColor=#116D5B;strokeColor=#ffffff;dashed=0;verticalLabelPosition=middle;verticalAlign=middle;align=left;html=1;fontSize=12;fontStyle=0;aspect=fixed;shape=mxgraph.aws4.resourceIcon;resIcon=mxgraph.aws4.sagemaker;labelPosition=right;" vertex="1" parent="1">
          <mxGeometry x="493" y="290" width="78" height="78" as="geometry" />
        </mxCell>
        <mxCell id="zv7DM0A8hmBbavPNrGPF-6" value="&lt;div&gt;FBA-FEES&lt;/div&gt;&lt;div&gt;Output Data&lt;br&gt;&lt;/div&gt;" style="points=[[0,0,0],[0.25,0,0],[0.5,0,0],[0.75,0,0],[1,0,0],[0,1,0],[0.25,1,0],[0.5,1,0],[0.75,1,0],[1,1,0],[0,0.25,0],[0,0.5,0],[0,0.75,0],[1,0.25,0],[1,0.5,0],[1,0.75,0]];outlineConnect=0;fontColor=#232F3E;gradientColor=#60A337;gradientDirection=north;fillColor=#277116;strokeColor=#ffffff;dashed=0;verticalLabelPosition=top;verticalAlign=bottom;align=center;html=1;fontSize=12;fontStyle=0;aspect=fixed;shape=mxgraph.aws4.resourceIcon;resIcon=mxgraph.aws4.s3;labelPosition=center;" vertex="1" parent="1">
          <mxGeometry x="493" y="150" width="78" height="78" as="geometry" />
        </mxCell>
        <mxCell id="zv7DM0A8hmBbavPNrGPF-7" value="1" style="endArrow=classic;html=1;entryX=0;entryY=0.5;entryDx=0;entryDy=0;entryPerimeter=0;" edge="1" parent="1" source="zv7DM0A8hmBbavPNrGPF-1" target="zv7DM0A8hmBbavPNrGPF-4">
          <mxGeometry width="50" height="50" relative="1" as="geometry">
            <mxPoint x="400" y="370" as="sourcePoint" />
            <mxPoint x="290" y="328" as="targetPoint" />
          </mxGeometry>
        </mxCell>
        <mxCell id="zv7DM0A8hmBbavPNrGPF-8" value="2" style="endArrow=classic;html=1;exitX=0.5;exitY=1;exitDx=0;exitDy=0;exitPerimeter=0;entryX=0.5;entryY=0;entryDx=0;entryDy=0;entryPerimeter=0;" edge="1" parent="1" source="zv7DM0A8hmBbavPNrGPF-2" target="zv7DM0A8hmBbavPNrGPF-4">
          <mxGeometry width="50" height="50" relative="1" as="geometry">
            <mxPoint x="320" y="290" as="sourcePoint" />
            <mxPoint x="450" y="320" as="targetPoint" />
          </mxGeometry>
        </mxCell>
        <mxCell id="zv7DM0A8hmBbavPNrGPF-9" value="3" style="endArrow=classic;html=1;exitX=1;exitY=0.5;exitDx=0;exitDy=0;exitPerimeter=0;entryX=0;entryY=0.5;entryDx=0;entryDy=0;entryPerimeter=0;" edge="1" parent="1" source="zv7DM0A8hmBbavPNrGPF-4" target="zv7DM0A8hmBbavPNrGPF-5">
          <mxGeometry width="50" height="50" relative="1" as="geometry">
            <mxPoint x="400" y="530" as="sourcePoint" />
            <mxPoint x="450" y="480" as="targetPoint" />
          </mxGeometry>
        </mxCell>
        <mxCell id="zv7DM0A8hmBbavPNrGPF-10" value="4" style="endArrow=classic;html=1;exitX=0.5;exitY=1;exitDx=0;exitDy=0;exitPerimeter=0;entryX=0.5;entryY=1;entryDx=0;entryDy=0;entryPerimeter=0;" edge="1" parent="1" source="zv7DM0A8hmBbavPNrGPF-1" target="zv7DM0A8hmBbavPNrGPF-5">
          <mxGeometry width="50" height="50" relative="1" as="geometry">
            <mxPoint x="400" y="370" as="sourcePoint" />
            <mxPoint x="440" y="580" as="targetPoint" />
            <Array as="points">
              <mxPoint x="129" y="440" />
              <mxPoint x="532" y="440" />
            </Array>
          </mxGeometry>
        </mxCell>
      </root>
    </mxGraphModel>
  </diagram>
</mxfile>
